<svg id="left" xmlns="http://www.w3.org/2000/svg" width="720" height="721" viewBox="0 0 720 721">
  <defs>
    <style>
      .cls-1 {
        fill: #fff;
      }

      .cls-1, .cls-2 {
        fill-rule: evenodd;
      }
    </style>
  </defs>
  <path id="Forma_1" data-name="Forma 1" class="cls-1" d="M360,661.177s37.742-291.821-110.985-399.545c5.23,11.255,25.86,48.166,34.3,82.734C218.02,191.412,30.233,227.011,45.207,59.841,35.6,84.072-5.6,195.478,117.852,354.455c-9.8-3.972-43.3-12.57-119.057-96.859,12.223,19.171,69.23,99.4,151.343,145.289-5.081,10.8-32.6,129.045,90.806,165.469-10.222-4.335-100.872-47.783-56.5-143.272,7.035,1.452,13.029,4.893,20.179,8.072-35.478,39.555,7.8,138.154,106.949,88.788-0.938,10.274,0,48.43,0,48.43l27.7,0.274S343.488,586.106,360,661.177Z"/>
  <path id="Forma_2" data-name="Forma 2" class="cls-2" d="M230.855,447.279s52.609,28.484,66.59,44.394C269.326,541.751,191.931,498.928,230.855,447.279Z"/>
  <path id="Forma_1_copiar" data-name="Forma 1 copiar" class="cls-1" d="M360,661.177S322.257,369.356,470.984,261.632c-5.23,11.255-25.86,48.166-34.3,82.734,65.3-152.954,253.087-117.355,238.113-284.525C684.4,84.072,725.6,195.478,602.148,354.455c9.8-3.972,43.3-12.57,119.057-96.859-12.224,19.171-69.23,99.4-151.343,145.289,5.081,10.8,32.6,129.045-90.806,165.469,10.222-4.335,100.872-47.783,56.5-143.272-7.035,1.452-13.03,4.893-20.179,8.072,35.478,39.555-7.8,138.154-106.949,88.788,0.938,10.274,0,48.43,0,48.43l-28.855.274S372.168,592.561,360,661.177Z"/>
  <path id="Forma_2_copiar" data-name="Forma 2 copiar" class="cls-2" d="M489.221,447.279s-52.18,28.43-66.048,44.31C451.063,541.572,527.827,498.83,489.221,447.279Z"/>
</svg>
