<svg id="left" xmlns="http://www.w3.org/2000/svg" width="720" height="721" viewBox="0 0 720 721">
  <defs>
    <style>
      .cls-1, .cls-2 {
        fill-rule: evenodd;
      }

      .cls-2 {
        fill: #fff;
      }
    </style>
  </defs>
  <path id="Forma_1" data-name="Forma 1" class="cls-1" d="M359.725,660.4s37.645-291.065-110.7-398.51c5.217,11.226,25.793,48.041,34.216,82.52C218.113,191.851,30.813,227.358,45.748,60.62,36.166,84.789-4.932,195.906,118.2,354.471c-9.775-3.962-43.191-12.538-118.747-96.608,12.192,19.121,69.05,99.147,150.95,144.912-5.067,10.774-32.516,128.711,90.571,165.04-10.2-4.324-100.611-47.659-56.355-142.9,7.017,1.448,13,4.88,20.126,8.05-35.385,39.453,7.777,137.8,106.672,88.558-0.935,10.248,0,48.3,0,48.3l27.633,0.274S343.255,585.521,359.725,660.4Z"/>
  <path id="Forma_2" data-name="Forma 2" class="cls-2" d="M230.914,447.054s52.473,28.41,66.419,44.279C269.286,541.281,192.091,498.569,230.914,447.054Z"/>
  <path id="Forma_1_copiar" data-name="Forma 1 copiar" class="cls-1" d="M359.724,660.4s-37.645-291.065,110.7-398.51c-5.216,11.226-25.793,48.041-34.215,82.52,65.13-152.557,252.431-117.05,237.5-283.788,9.582,24.168,50.679,135.286-72.457,293.851,9.776-3.962,43.192-12.538,118.748-96.608-12.192,19.121-69.05,99.147-150.951,144.912,5.068,10.774,32.517,128.711-90.57,165.04,10.2-4.324,100.611-47.659,56.355-142.9-7.017,1.448-13,4.88-20.127,8.05,35.386,39.453-7.776,137.8-106.672,88.558,0.936,10.248,0,48.3,0,48.3l-28.78.274S371.861,591.959,359.724,660.4Z"/>
  <path id="Forma_2_copiar" data-name="Forma 2 copiar" class="cls-2" d="M488.611,447.054s-52.045,28.357-65.877,44.2C450.552,541.1,527.117,498.472,488.611,447.054Z"/>
</svg>
