<svg id="left" xmlns="http://www.w3.org/2000/svg" width="720" height="721" viewBox="0 0 720 721">
  <defs>
    <style>
      .cls-1 {
        fill: #5c0ccf;
      }

      .cls-1, .cls-2 {
        fill-rule: evenodd;
      }

      .cls-2 {
        fill: #f9943b;
      }
    </style>
  </defs>
  <path id="Forma_1" data-name="Forma 1" class="cls-1" d="M360.052,660.212s37.622-290.885-110.628-398.263c5.213,11.22,25.777,48.011,34.194,82.469C218.528,191.955,31.343,227.44,46.27,60.807c-9.576,24.153-50.648,135.2,72.411,293.669-9.77-3.96-43.165-12.53-118.674-96.549,12.184,19.11,69.007,99.086,150.857,144.823-5.065,10.767-32.5,128.631,90.514,164.937-10.19-4.321-100.548-47.629-56.32-142.811,7.013,1.447,12.988,4.877,20.114,8.046-35.363,39.427,7.772,137.71,106.606,88.5-0.935,10.241,0,48.275,0,48.275l27.615,0.273S343.592,585.381,360.052,660.212Z"/>
  <path id="Forma_2" data-name="Forma 2" class="cls-2" d="M231.321,447s52.44,28.392,66.377,44.251C269.669,541.169,192.522,498.484,231.321,447Z"/>
  <path id="Forma_1_copiar" data-name="Forma 1 copiar" class="cls-1" d="M360.051,660.212S322.429,369.327,470.679,261.949c-5.213,11.22-25.776,48.011-34.194,82.469C501.575,191.955,688.76,227.44,673.834,60.807c9.576,24.153,50.648,135.2-72.412,293.669,9.77-3.96,43.165-12.53,118.674-96.549-12.184,19.11-69.007,99.086-150.857,144.823,5.065,10.767,32.5,128.631-90.514,164.937,10.19-4.321,100.548-47.629,56.32-142.811-7.013,1.447-12.988,4.877-20.114,8.046,35.364,39.427-7.772,137.71-106.606,88.5,0.935,10.241,0,48.275,0,48.275l-28.763.273S372.18,591.816,360.051,660.212Z"/>
  <path id="Forma_2_copiar" data-name="Forma 2 copiar" class="cls-2" d="M488.858,447s-52.013,28.338-65.836,44.167C450.822,540.991,527.34,498.386,488.858,447Z"/>
</svg>
